{"scene":0,"asset":{"generator":"ImageToStl.com","version":"2.0"},"scenes":[{"name":"Scene","nodes":[0]}],"nodes":[{"name":"Node0","children":[1]},{"name":"Node1","mesh":0}],"materials":[{"name":"#A0A0A0FF","pbrMetallicRoughness":{"baseColorFactor":[0.627451,0.627451,0.627451,1.0],"metallicFactor":0.0,"roughnessFactor":1.0},"doubleSided":true},{"name":"#989898FF","pbrMetallicRoughness":{"baseColorFactor":[0.59607846,0.59607846,0.59607846,1.0],"metallicFactor":0.0,"roughnessFactor":1.0},"doubleSided":true}],"meshes":[{"name":"Mesh0","primitives":[{"indices":2,"material":1,"attributes":{"POSITION":0,"NORMAL":1}}]}],"accessors":[{"bufferView":0,"componentType":5126,"count":782,"type":"VEC3","min":[-5.7,-9.998312,-0.49999616],"max":[17.3,10.001689,5.300004]},{"bufferView":1,"componentType":5126,"count":782,"type":"VEC3"},{"bufferView":2,"componentType":5123,"count":1050,"type":"SCALAR"}],"bufferViews":[{"target":34962,"buffer":0,"byteLength":9384,"byteOffset":0},{"target":34962,"buffer":0,"byteLength":9384,"byteOffset":9384},{"target":34963,"buffer":0,"byteLength":2100,"byteOffset":18768}],"buffers":[{"byteLength":20868,"uri":"data:application/octet-stream;base64,"}]}