{"scene":0,"asset":{"generator":"ImageToStl.com","version":"2.0"},"scenes":[{"name":"Scene","nodes":[0]}],"nodes":[{"name":"Node0","children":[1]},{"name":"Node1","mesh":0}],"materials":[{"name":"#A0A0A0FF","pbrMetallicRoughness":{"baseColorFactor":[0.627451,0.627451,0.627451,1.0],"metallicFactor":0.0,"roughnessFactor":1.0},"doubleSided":true},{"name":"#989898FF","pbrMetallicRoughness":{"baseColorFactor":[0.59607846,0.59607846,0.59607846,1.0],"metallicFactor":0.0,"roughnessFactor":1.0},"doubleSided":true}],"meshes":[{"name":"Mesh0","primitives":[{"indices":2,"material":1,"attributes":{"POSITION":0,"NORMAL":1}}]}],"accessors":[{"bufferView":0,"componentType":5126,"count":9008,"type":"VEC3","min":[0.0,-5.0,-20.0],"max":[30.784306,10.0,20.0]},{"bufferView":1,"componentType":5126,"count":9008,"type":"VEC3"},{"bufferView":2,"componentType":5123,"count":13662,"type":"SCALAR"}],"bufferViews":[{"target":34962,"buffer":0,"byteLength":108096,"byteOffset":0},{"target":34962,"buffer":0,"byteLength":108096,"byteOffset":108096},{"target":34963,"buffer":0,"byteLength":27324,"byteOffset":216192}],"buffers":[{"byteLength":243516,"uri":"data:application/octet-stream;base64,"}]}