{"scene":0,"asset":{"generator":"ImageToStl.com","version":"2.0"},"scenes":[{"name":"Scene","nodes":[0]}],"nodes":[{"name":"Node0","children":[1]},{"name":"Node1","mesh":0}],"materials":[{"name":"#A0A0A0FF","pbrMetallicRoughness":{"baseColorFactor":[0.627451,0.627451,0.627451,1.0],"metallicFactor":0.0,"roughnessFactor":1.0},"doubleSided":true},{"name":"#989898FF","pbrMetallicRoughness":{"baseColorFactor":[0.59607846,0.59607846,0.59607846,1.0],"metallicFactor":0.0,"roughnessFactor":1.0},"doubleSided":true}],"meshes":[{"name":"Mesh0","primitives":[{"indices":2,"material":1,"attributes":{"POSITION":0,"NORMAL":1}}]}],"accessors":[{"bufferView":0,"componentType":5126,"count":1882,"type":"VEC3","min":[-3.0,-1.87,-3.0],"max":[16.0,2.0,3.0]},{"bufferView":1,"componentType":5126,"count":1882,"type":"VEC3"},{"bufferView":2,"componentType":5123,"count":3042,"type":"SCALAR"}],"bufferViews":[{"target":34962,"buffer":0,"byteLength":22584,"byteOffset":0},{"target":34962,"buffer":0,"byteLength":22584,"byteOffset":22584},{"target":34963,"buffer":0,"byteLength":6084,"byteOffset":45168}],"buffers":[{"byteLength":51252,"uri":"data:application/octet-stream;base64,"}]}